<svg width="18" height="12" viewBox="0 0 18 12" fill="none" xmlns="http://www.w3.org/2000/svg">
    <path fill-rule="evenodd" clip-rule="evenodd"
        d="M11.2444 10C11.6617 10 12 10.3383 12 10.7556C12 11.1728 11.6617 11.5111 11.2444 11.5111H6.75556C6.33827 11.5111 6 11.1728 6 10.7556C6 10.3383 6.33827 10 6.75556 10H11.2444ZM14.2444 5C14.6617 5 15 5.33827 15 5.75556C15 6.17284 14.6617 6.51111 14.2444 6.51111H3.75556C3.33827 6.51111 3 6.17284 3 5.75556C3 5.33827 3.33827 5 3.75556 5H14.2444ZM17.2444 0C17.6617 0 18 0.338274 18 0.755556C18 1.17284 17.6617 1.51111 17.2444 1.51111H0.755556C0.338274 1.51111 0 1.17284 0 0.755556C0 0.338274 0.338274 0 0.755556 0H17.2444Z"
        fill="#ffffff" />
</svg>